STARTFONT 2.1
COMMENT Copyright (C) 1990-1991 EWT Consulting
COMMENT Portions Copyright (C) 1994-1995 Cronyx Ltd.
COMMENT Changes Copyright (C) 1996-1997 by Andrey A. Chernov, Moscow, Russia.
COMMENT Modified by Serge Vakulenko, <vak@cronyx.ru>
COMMENT Changes 1999 by Serge Winitzki.
COMMENT This software may be used, modified, copied, distributed, and sold,
COMMENT in both source and binary form provided that the copyright
COMMENT and these terms are retained. Under no circumstances is the author
COMMENT responsible for the proper functioning of this software, nor does
COMMENT the author assume any responsibility for damages incurred with its use.
COMMENT $XFree86$
FONT -Cronyx-Helvetica-Bold-O-Normal--17-120-100-100-P-67-KOI8-R
SIZE 12 96 96
FONTBOUNDINGBOX 20 18 -2 -4
STARTPROPERTIES 21
DEFAULT_CHAR 32
FONT_ASCENT 16
FONT_DESCENT 4
SPACING "P"
FONTNAME_REGISTRY ""
FOUNDRY "Cronyx"
FAMILY_NAME "Helvetica"
WEIGHT_NAME "Bold"
SLANT "O"
SETWIDTH_NAME "Normal"
ADD_STYLE_NAME ""
AVERAGE_WIDTH 67
CHARSET_REGISTRY "KOI8"
CHARSET_ENCODING "R"
PIXEL_SIZE 17
POINT_SIZE 120
RESOLUTION_X 100
RESOLUTION_Y 100
COPYRIGHT "Copyright (C) 1990, 1991 EWT Consulting, Portions Copyright (C) 1994 Cronyx Ltd., Portions Copyright (C) 1996-1997 by Andrey A. Chernov, Moscow, Russia."
_XMBDFED_INFO "Edited with xmbdfed 4.3."
_XFREE86_GLYPH_RANGES "32_126 149 154 156_158 163 179 191_255"
ENDPROPERTIES
CHARS 167
STARTCHAR space
ENCODING 32
SWIDTH 313 0
DWIDTH 5 0
BBX 0 0 -1 0
BITMAP
ENDCHAR
STARTCHAR exclam
ENCODING 33
SWIDTH 417 0
DWIDTH 5 0
BBX 5 12 1 0
BITMAP
18
30
30
30
30
60
60
60
60
00
00
C0
ENDCHAR
STARTCHAR quotedbl
ENCODING 34
SWIDTH 1750 0
DWIDTH 7 0
BBX 6 4 2 8
BITMAP
6C
D8
D8
D8
ENDCHAR
STARTCHAR numbersign
ENCODING 35
SWIDTH 833 0
DWIDTH 10 0
BBX 12 12 -1 0
BITMAP
0360
06C0
06C0
1FE0
0D80
1B00
1B00
1B00
7F80
6C00
6C00
6C00
ENDCHAR
STARTCHAR dollar
ENCODING 36
SWIDTH 714 0
DWIDTH 10 0
BBX 11 14 0 -1
BITMAP
0300
0780
0FC0
36C0
3600
1E00
0F00
0F00
0D80
0D80
6D80
7E00
3C00
1800
ENDCHAR
STARTCHAR percent
ENCODING 37
SWIDTH 1250 0
DWIDTH 15 0
BBX 16 12 0 0
BITMAP
0F03
330C
3318
3330
1E60
0180
0300
0678
0CCC
3198
6198
C0F0
ENDCHAR
STARTCHAR ampersand
ENCODING 38
SWIDTH 1000 0
DWIDTH 12 0
BBX 14 12 0 0
BITMAP
0700
1B00
1B00
1B00
0E00
1C00
3600
6360
61E0
C180
63C0
3E60
ENDCHAR
STARTCHAR quotesingle
ENCODING 39
SWIDTH 1000 0
DWIDTH 4 0
BBX 3 4 2 8
BITMAP
60
C0
C0
C0
ENDCHAR
STARTCHAR parenleft
ENCODING 40
SWIDTH 375 0
DWIDTH 6 0
BBX 8 16 0 -3
BITMAP
03
0C
0C
0C
18
30
30
30
30
60
60
60
30
60
60
30
ENDCHAR
STARTCHAR parenright
ENCODING 41
SWIDTH 375 0
DWIDTH 6 0
BBX 8 16 0 -3
BITMAP
0C
0C
0C
0C
06
0C
0C
0C
0C
18
18
18
30
60
60
C0
ENDCHAR
STARTCHAR asterisk
ENCODING 42
SWIDTH 1400 0
DWIDTH 7 0
BBX 7 5 2 8
BITMAP
18
7E
78
78
CC
ENDCHAR
STARTCHAR plus
ENCODING 43
SWIDTH 1429 0
DWIDTH 10 0
BBX 9 7 1 2
BITMAP
0C00
0C00
0C00
7F80
1800
1800
1800
ENDCHAR
STARTCHAR comma
ENCODING 44
SWIDTH 2500 0
DWIDTH 5 0
BBX 3 2 0 -1
BITMAP
60
C0
ENDCHAR
STARTCHAR hyphen
ENCODING 45
SWIDTH 6000 0
DWIDTH 6 0
BBX 6 1 0 5
BITMAP
FC
ENDCHAR
STARTCHAR period
ENCODING 46
SWIDTH 5000 0
DWIDTH 5 0
BBX 2 1 1 0
BITMAP
C0
ENDCHAR
STARTCHAR slash
ENCODING 47
SWIDTH 385 0
DWIDTH 5 0
BBX 8 13 -1 -1
BITMAP
03
03
06
06
0C
0C
18
18
30
30
60
60
C0
ENDCHAR
STARTCHAR zero
ENCODING 48
SWIDTH 833 0
DWIDTH 10 0
BBX 11 12 0 0
BITMAP
0780
1980
1980
30C0
30C0
6180
6180
6180
6180
6600
6600
3C00
ENDCHAR
STARTCHAR one
ENCODING 49
SWIDTH 833 0
DWIDTH 10 0
BBX 7 12 1 0
BITMAP
06
3C
0C
0C
0C
18
18
18
18
30
30
30
ENDCHAR
STARTCHAR two
ENCODING 50
SWIDTH 833 0
DWIDTH 10 0
BBX 11 12 0 0
BITMAP
0780
1980
30C0
30C0
00C0
0300
0600
0C00
1800
6000
C000
FF00
ENDCHAR
STARTCHAR three
ENCODING 51
SWIDTH 833 0
DWIDTH 10 0
BBX 11 12 0 0
BITMAP
0780
1980
30C0
30C0
0180
1E00
0300
0180
6180
C300
6600
3C00
ENDCHAR
STARTCHAR four
ENCODING 52
SWIDTH 833 0
DWIDTH 10 0
BBX 11 12 0 0
BITMAP
00C0
0380
0380
0780
0D80
1B00
3300
6300
7F80
0600
0600
0600
ENDCHAR
STARTCHAR five
ENCODING 53
SWIDTH 833 0
DWIDTH 10 0
BBX 11 12 0 0
BITMAP
1FE0
3000
3000
3000
3F00
7300
6180
0180
6180
C300
6600
3C00
ENDCHAR
STARTCHAR six
ENCODING 54
SWIDTH 833 0
DWIDTH 10 0
BBX 11 12 0 0
BITMAP
0780
1980
30C0
3000
3F00
7300
6180
6180
6180
C300
6600
3C00
ENDCHAR
STARTCHAR seven
ENCODING 55
SWIDTH 833 0
DWIDTH 10 0
BBX 11 12 0 0
BITMAP
1FE0
00C0
00C0
0180
0180
0600
0600
0600
0C00
1800
1800
1800
ENDCHAR
STARTCHAR eight
ENCODING 56
SWIDTH 833 0
DWIDTH 10 0
BBX 11 12 0 0
BITMAP
0780
1980
30C0
30C0
1980
1E00
3300
6180
6180
C300
6600
3C00
ENDCHAR
STARTCHAR nine
ENCODING 57
SWIDTH 833 0
DWIDTH 10 0
BBX 11 12 0 0
BITMAP
0780
1980
30C0
30C0
30C0
6180
3380
1F80
0180
C300
6600
3C00
ENDCHAR
STARTCHAR colon
ENCODING 58
SWIDTH 556 0
DWIDTH 5 0
BBX 4 9 1 0
BITMAP
30
00
00
00
00
00
00
00
C0
ENDCHAR
STARTCHAR semicolon
ENCODING 59
SWIDTH 500 0
DWIDTH 5 0
BBX 5 10 0 -1
BITMAP
18
00
00
00
00
00
00
00
60
C0
ENDCHAR
STARTCHAR less
ENCODING 60
SWIDTH 1429 0
DWIDTH 10 0
BBX 9 7 1 2
BITMAP
0380
0E00
3800
6000
7000
1C00
0700
ENDCHAR
STARTCHAR equal
ENCODING 61
SWIDTH 2500 0
DWIDTH 10 0
BBX 9 4 1 4
BITMAP
7F80
0000
0000
FF00
ENDCHAR
STARTCHAR greater
ENCODING 62
SWIDTH 1429 0
DWIDTH 10 0
BBX 9 7 1 2
BITMAP
7000
1C00
0700
0180
0E00
3800
E000
ENDCHAR
STARTCHAR question
ENCODING 63
SWIDTH 833 0
DWIDTH 10 0
BBX 11 12 0 0
BITMAP
0780
1980
30C0
30C0
00C0
0300
0600
0C00
0C00
0000
0000
1800
ENDCHAR
STARTCHAR at
ENCODING 64
SWIDTH 1417 0
DWIDTH 17 0
BBX 18 12 0 0
BITMAP
00FE00
070600
0C0300
18F180
199980
663300
663300
667600
63FC00
600000
383800
0FE000
ENDCHAR
STARTCHAR A
ENCODING 65
SWIDTH 1000 0
DWIDTH 12 0
BBX 15 12 -1 0
BITMAP
00C0
0180
03C0
03C0
0660
0CC0
1860
1860
3FF0
6060
C030
C030
ENDCHAR
STARTCHAR B
ENCODING 66
SWIDTH 1000 0
DWIDTH 12 0
BBX 12 12 1 0
BITMAP
1FC0
30C0
3060
3060
30C0
7F00
6180
60C0
60C0
C180
C300
FE00
ENDCHAR
STARTCHAR C
ENCODING 67
SWIDTH 1000 0
DWIDTH 12 0
BBX 14 12 0 0
BITMAP
03E0
1C70
1830
3018
3000
6000
6000
6000
6030
60C0
71C0
1F00
ENDCHAR
STARTCHAR D
ENCODING 68
SWIDTH 1083 0
DWIDTH 13 0
BBX 13 12 1 0
BITMAP
1FC0
30E0
3060
3030
3030
6060
6060
6060
6060
C180
C380
FE00
ENDCHAR
STARTCHAR E
ENCODING 69
SWIDTH 1000 0
DWIDTH 12 0
BBX 12 12 1 0
BITMAP
1FF0
3000
3000
3000
3000
7F80
6000
6000
6000
C000
C000
FF80
ENDCHAR
STARTCHAR F
ENCODING 70
SWIDTH 917 0
DWIDTH 11 0
BBX 12 12 1 0
BITMAP
1FF0
3000
3000
3000
3000
7F80
6000
6000
6000
C000
C000
C000
ENDCHAR
STARTCHAR G
ENCODING 71
SWIDTH 1167 0
DWIDTH 14 0
BBX 14 12 0 0
BITMAP
03E0
1C70
1830
3018
3000
6000
63F0
6030
6030
60E0
71E0
1F60
ENDCHAR
STARTCHAR H
ENCODING 72
SWIDTH 1083 0
DWIDTH 13 0
BBX 12 12 1 0
BITMAP
1830
3060
3060
3060
3060
7FC0
60C0
60C0
60C0
C180
C180
C180
ENDCHAR
STARTCHAR I
ENCODING 73
SWIDTH 500 0
DWIDTH 6 0
BBX 5 12 1 0
BITMAP
18
30
30
30
30
60
60
60
60
C0
C0
C0
ENDCHAR
STARTCHAR J
ENCODING 74
SWIDTH 750 0
DWIDTH 9 0
BBX 10 12 -1 0
BITMAP
00C0
0180
0180
0180
0180
0300
0300
0300
6300
C600
C600
7C00
ENDCHAR
STARTCHAR K
ENCODING 75
SWIDTH 917 0
DWIDTH 11 0
BBX 12 12 1 0
BITMAP
1860
3180
3300
3600
3C00
7000
7800
6C00
6600
C600
C300
C180
ENDCHAR
STARTCHAR L
ENCODING 76
SWIDTH 833 0
DWIDTH 10 0
BBX 11 12 1 0
BITMAP
1800
3000
3000
3000
3000
6000
6000
6000
6000
C000
C000
FF00
ENDCHAR
STARTCHAR M
ENCODING 77
SWIDTH 1167 0
DWIDTH 14 0
BBX 13 12 1 0
BITMAP
1818
3030
3870
3870
3CF0
79E0
6F60
6F60
6660
CCC0
C0C0
C0C0
ENDCHAR
STARTCHAR N
ENCODING 78
SWIDTH 1000 0
DWIDTH 12 0
BBX 11 12 1 0
BITMAP
1860
38C0
38C0
3CC0
3CC0
6D80
6D80
6780
6780
C700
C700
C300
ENDCHAR
STARTCHAR O
ENCODING 79
SWIDTH 1083 0
DWIDTH 13 0
BBX 14 12 0 0
BITMAP
03E0
1C70
1830
3018
3018
6030
6030
6030
6030
60C0
71C0
1F00
ENDCHAR
STARTCHAR P
ENCODING 80
SWIDTH 917 0
DWIDTH 11 0
BBX 12 12 1 0
BITMAP
1FC0
30C0
3060
3060
3060
6180
7F00
6000
6000
C000
C000
C000
ENDCHAR
STARTCHAR Q
ENCODING 81
SWIDTH 1000 0
DWIDTH 13 0
BBX 14 13 0 -1
BITMAP
03E0
0E38
1830
3018
3018
3018
6030
6030
6330
31E0
71C0
1FC0
0060
ENDCHAR
STARTCHAR R
ENCODING 82
SWIDTH 1083 0
DWIDTH 13 0
BBX 13 12 1 0
BITMAP
1FC0
30C0
3060
3060
3060
6180
7F00
6180
60C0
C180
C180
C0C0
ENDCHAR
STARTCHAR S
ENCODING 83
SWIDTH 1000 0
DWIDTH 12 0
BBX 13 12 0 0
BITMAP
07E0
1860
3030
3000
1800
1F80
00C0
0060
0060
C0C0
6180
3F00
ENDCHAR
STARTCHAR T
ENCODING 84
SWIDTH 833 0
DWIDTH 10 0
BBX 13 12 -1 0
BITMAP
1FF8
0300
0300
0300
0300
0600
0600
0600
0600
0C00
0C00
0C00
ENDCHAR
STARTCHAR U
ENCODING 85
SWIDTH 1083 0
DWIDTH 13 0
BBX 12 12 1 0
BITMAP
1830
3060
3060
3060
3060
60C0
60C0
60C0
60C0
C180
6300
3E00
ENDCHAR
STARTCHAR V
ENCODING 86
SWIDTH 1000 0
DWIDTH 12 0
BBX 15 12 -1 0
BITMAP
1806
300C
1818
1818
0C30
1860
0CC0
0CC0
0780
0F00
0600
0600
ENDCHAR
STARTCHAR W
ENCODING 87
SWIDTH 1333 0
DWIDTH 16 0
BBX 19 12 -1 0
BITMAP
180060
3060C0
186180
186180
18F180
19E600
19E600
0F3C00
0F3C00
0C3000
0C3000
0C3000
ENDCHAR
STARTCHAR X
ENCODING 88
SWIDTH 1000 0
DWIDTH 12 0
BBX 15 12 -1 0
BITMAP
1806
1818
0C30
0660
03C0
0300
0300
0780
0CC0
30C0
6060
C030
ENDCHAR
STARTCHAR Y
ENCODING 89
SWIDTH 1000 0
DWIDTH 12 0
BBX 15 12 -1 0
BITMAP
1806
1818
0C30
0660
03C0
0300
0300
0300
0300
0600
0600
0600
ENDCHAR
STARTCHAR Z
ENCODING 90
SWIDTH 917 0
DWIDTH 11 0
BBX 14 12 -1 0
BITMAP
0FFC
0018
0030
0060
00C0
0300
0600
0C00
1800
6000
C000
FFC0
ENDCHAR
STARTCHAR bracketleft
ENCODING 91
SWIDTH 333 0
DWIDTH 5 0
BBX 6 15 0 -3
BITMAP
1C
18
18
18
30
30
30
30
60
60
60
60
C0
C0
E0
ENDCHAR
STARTCHAR backslash
ENCODING 92
SWIDTH 385 0
DWIDTH 5 0
BBX 8 13 -1 -1
BITMAP
18
18
30
30
18
18
30
30
18
18
30
30
18
ENDCHAR
STARTCHAR bracketright
ENCODING 93
SWIDTH 333 0
DWIDTH 5 0
BBX 6 15 0 -3
BITMAP
1C
0C
0C
0C
18
18
18
18
30
30
30
30
60
60
E0
ENDCHAR
STARTCHAR asciicircum
ENCODING 94
SWIDTH 2667 0
DWIDTH 8 0
BBX 6 3 2 10
BITMAP
30
78
CC
ENDCHAR
STARTCHAR underscore
ENCODING 95
SWIDTH 10000 0
DWIDTH 10 0
BBX 10 1 -1 -2
BITMAP
FFC0
ENDCHAR
STARTCHAR grave
ENCODING 96
SWIDTH 2000 0
DWIDTH 6 0
BBX 4 3 2 10
BITMAP
C0
60
30
ENDCHAR
STARTCHAR a
ENCODING 97
SWIDTH 1111 0
DWIDTH 10 0
BBX 11 9 0 0
BITMAP
1F80
30C0
0180
0180
3F80
6180
C300
C300
7F80
ENDCHAR
STARTCHAR b
ENCODING 98
SWIDTH 833 0
DWIDTH 10 0
BBX 11 12 0 0
BITMAP
1800
3000
3000
3F00
3980
6180
6180
6180
6180
C300
E600
FC00
ENDCHAR
STARTCHAR c
ENCODING 99
SWIDTH 1000 0
DWIDTH 9 0
BBX 10 9 0 0
BITMAP
0F00
1980
6180
6000
6000
6000
C300
6600
3C00
ENDCHAR
STARTCHAR d
ENCODING 100
SWIDTH 833 0
DWIDTH 10 0
BBX 11 12 0 0
BITMAP
0060
00C0
00C0
0FC0
19C0
6180
6180
6180
6180
C300
6700
3F00
ENDCHAR
STARTCHAR e
ENCODING 101
SWIDTH 1111 0
DWIDTH 10 0
BBX 10 9 0 0
BITMAP
0F00
1980
6180
6180
7F80
6000
C300
6600
3C00
ENDCHAR
STARTCHAR f
ENCODING 102
SWIDTH 500 0
DWIDTH 6 0
BBX 9 12 -1 0
BITMAP
0380
0C00
0C00
3F00
0C00
1800
1800
1800
1800
3000
3000
3000
ENDCHAR
STARTCHAR g
ENCODING 103
SWIDTH 769 0
DWIDTH 10 0
BBX 11 13 -1 -4
BITMAP
07E0
0CE0
30C0
30C0
30C0
30C0
6180
3380
1F80
0180
0300
0600
7C00
ENDCHAR
STARTCHAR h
ENCODING 104
SWIDTH 833 0
DWIDTH 10 0
BBX 11 12 0 0
BITMAP
1800
3000
3000
3F00
3980
6180
6180
6180
6180
C300
C300
C300
ENDCHAR
STARTCHAR i
ENCODING 105
SWIDTH 333 0
DWIDTH 4 0
BBX 5 12 0 0
BITMAP
18
00
00
30
30
60
60
60
60
C0
C0
C0
ENDCHAR
STARTCHAR j
ENCODING 106
SWIDTH 250 0
DWIDTH 4 0
BBX 7 16 -2 -4
BITMAP
06
00
00
0C
0C
18
18
18
18
30
30
30
30
60
60
C0
ENDCHAR
STARTCHAR k
ENCODING 107
SWIDTH 750 0
DWIDTH 9 0
BBX 11 12 0 0
BITMAP
1800
3000
3000
3180
3300
6C00
7800
7800
6C00
CC00
C600
C300
ENDCHAR
STARTCHAR l
ENCODING 108
SWIDTH 333 0
DWIDTH 4 0
BBX 5 12 0 0
BITMAP
18
30
30
30
30
60
60
60
60
C0
C0
C0
ENDCHAR
STARTCHAR m
ENCODING 109
SWIDTH 1556 0
DWIDTH 14 0
BBX 14 9 0 0
BITMAP
3E70
3BD8
6318
6318
6318
6318
C630
C630
C630
ENDCHAR
STARTCHAR n
ENCODING 110
SWIDTH 1111 0
DWIDTH 10 0
BBX 10 9 0 0
BITMAP
3F00
3980
6180
6180
6180
6180
C300
C300
C300
ENDCHAR
STARTCHAR o
ENCODING 111
SWIDTH 1111 0
DWIDTH 10 0
BBX 10 9 0 0
BITMAP
0F00
1980
6180
6180
6180
6180
C300
6600
3C00
ENDCHAR
STARTCHAR p
ENCODING 112
SWIDTH 769 0
DWIDTH 10 0
BBX 11 13 -1 -4
BITMAP
1F80
1CC0
30C0
30C0
30C0
30C0
6180
7300
7E00
6000
C000
C000
C000
ENDCHAR
STARTCHAR q
ENCODING 113
SWIDTH 769 0
DWIDTH 10 0
BBX 11 13 -1 -4
BITMAP
07E0
0CE0
30C0
30C0
30C0
30C0
6180
3380
1F80
0180
0300
0300
0300
ENDCHAR
STARTCHAR r
ENCODING 114
SWIDTH 667 0
DWIDTH 6 0
BBX 7 9 0 0
BITMAP
3E
38
60
60
60
60
C0
C0
C0
ENDCHAR
STARTCHAR s
ENCODING 115
SWIDTH 1000 0
DWIDTH 9 0
BBX 9 9 0 0
BITMAP
1F00
3180
6000
6000
3E00
0300
0600
C600
7C00
ENDCHAR
STARTCHAR t
ENCODING 116
SWIDTH 500 0
DWIDTH 6 0
BBX 9 12 -1 0
BITMAP
0600
0C00
0C00
3F00
0C00
1800
1800
1800
1800
3000
3000
1800
ENDCHAR
STARTCHAR u
ENCODING 117
SWIDTH 1111 0
DWIDTH 10 0
BBX 10 9 0 0
BITMAP
30C0
30C0
6180
6180
6180
6180
C300
6700
3F00
ENDCHAR
STARTCHAR v
ENCODING 118
SWIDTH 889 0
DWIDTH 8 0
BBX 10 9 -1 0
BITMAP
30C0
30C0
3300
3300
1E00
1E00
1800
1800
1800
ENDCHAR
STARTCHAR w
ENCODING 119
SWIDTH 1333 0
DWIDTH 12 0
BBX 14 9 -1 0
BITMAP
300C
318C
3330
3330
1FE0
1FE0
1980
1980
1980
ENDCHAR
STARTCHAR x
ENCODING 120
SWIDTH 889 0
DWIDTH 8 0
BBX 10 9 -1 0
BITMAP
30C0
1980
3300
1E00
0C00
1E00
6600
6600
C300
ENDCHAR
STARTCHAR y
ENCODING 121
SWIDTH 615 0
DWIDTH 8 0
BBX 11 13 -2 -4
BITMAP
1860
1860
1980
1980
0F00
0F00
0C00
0C00
1800
1800
6000
6000
C000
ENDCHAR
STARTCHAR z
ENCODING 122
SWIDTH 1000 0
DWIDTH 9 0
BBX 9 9 0 0
BITMAP
3F80
0180
0600
0C00
1800
1800
6000
C000
FE00
ENDCHAR
STARTCHAR braceleft
ENCODING 123
SWIDTH 400 0
DWIDTH 6 0
BBX 7 15 0 -3
BITMAP
06
0C
0C
0C
18
18
18
30
30
30
30
30
60
60
30
ENDCHAR
STARTCHAR bar
ENCODING 124
SWIDTH 462 0
DWIDTH 6 0
BBX 5 13 1 -1
BITMAP
18
18
30
30
30
30
60
60
60
60
C0
C0
C0
ENDCHAR
STARTCHAR braceright
ENCODING 125
SWIDTH 400 0
DWIDTH 6 0
BBX 7 15 0 -3
BITMAP
18
0C
0C
0C
18
18
18
0C
30
30
30
30
60
60
C0
ENDCHAR
STARTCHAR asciitilde
ENCODING 126
SWIDTH 3333 0
DWIDTH 10 0
BBX 8 3 2 10
BITMAP
73
DB
CE
ENDCHAR
STARTCHAR bullet
ENCODING 149
SWIDTH 1400 0
DWIDTH 7 0
BBX 7 5 1 2
BITMAP
3C
7E
FC
FC
78
ENDCHAR
STARTCHAR space
ENCODING 154
SWIDTH 313 0
DWIDTH 5 0
BBX 0 0 -1 0
BITMAP
ENDCHAR
STARTCHAR degree
ENCODING 156
SWIDTH 1500 0
DWIDTH 6 0
BBX 6 4 2 8
BITMAP
38
D8
D8
70
ENDCHAR
STARTCHAR twosuperior
ENCODING 157
SWIDTH 1000 0
DWIDTH 6 0
BBX 6 6 1 6
BITMAP
38
6C
0C
30
60
F8
ENDCHAR
STARTCHAR periodcentered
ENCODING 158
SWIDTH 3000 0
DWIDTH 6 0
BBX 3 2 2 4
BITMAP
E0
E0
ENDCHAR
STARTCHAR afii10071
ENCODING 163
SWIDTH 909 0
DWIDTH 10 0
BBX 10 11 0 0
BITMAP
1980
0000
0F00
1980
6180
6180
7F80
6000
C300
6600
3C00
ENDCHAR
STARTCHAR afii10023
ENCODING 179
SWIDTH 857 0
DWIDTH 12 0
BBX 12 14 1 0
BITMAP
0C60
0000
1FF0
3000
3000
3000
3000
7F80
6000
6000
6000
C000
C000
FF80
ENDCHAR
STARTCHAR copyright
ENCODING 191
SWIDTH 1000 0
DWIDTH 12 0
BBX 15 12 -1 0
BITMAP
03F0
1C38
1818
33CC
366C
6C18
6C18
6CD8
6798
6070
70E0
1F80
ENDCHAR
STARTCHAR afii10096
ENCODING 192
SWIDTH 1333 0
DWIDTH 12 0
BBX 12 9 0 0
BITMAP
33C0
3660
7860
7860
7860
7860
F0C0
D980
CF00
ENDCHAR
STARTCHAR afii10065
ENCODING 193
SWIDTH 1111 0
DWIDTH 10 0
BBX 11 9 0 0
BITMAP
1F80
30C0
0180
0180
3F80
6180
C300
C300
7F80
ENDCHAR
STARTCHAR afii10066
ENCODING 194
SWIDTH 833 0
DWIDTH 10 0
BBX 11 12 0 0
BITMAP
0060
0F80
1800
3F00
3980
6180
6180
6180
6180
C300
6600
3C00
ENDCHAR
STARTCHAR afii10088
ENCODING 195
SWIDTH 818 0
DWIDTH 9 0
BBX 10 11 0 -2
BITMAP
3180
3180
3180
3180
6300
6300
6300
6300
FF00
0300
0300
ENDCHAR
STARTCHAR afii10069
ENCODING 196
SWIDTH 1000 0
DWIDTH 11 0
BBX 11 11 0 -2
BITMAP
0FC0
0CC0
0CC0
0CC0
1980
1980
1980
3180
FF80
C180
C180
ENDCHAR
STARTCHAR afii10070
ENCODING 197
SWIDTH 1111 0
DWIDTH 10 0
BBX 10 9 0 0
BITMAP
0F00
1980
6180
6180
7F80
6000
C300
6600
3C00
ENDCHAR
STARTCHAR afii10086
ENCODING 198
SWIDTH 563 0
DWIDTH 9 0
BBX 12 16 -1 -4
BITMAP
0180
0300
0300
0FC0
1B60
36C0
36C0
36C0
36C0
6D80
6D80
3F00
0C00
1800
1800
1800
ENDCHAR
STARTCHAR afii10068
ENCODING 199
SWIDTH 889 0
DWIDTH 8 0
BBX 9 9 0 0
BITMAP
3F80
3000
6000
6000
6000
6000
C000
C000
C000
ENDCHAR
STARTCHAR afii10087
ENCODING 200
SWIDTH 889 0
DWIDTH 8 0
BBX 10 9 -1 0
BITMAP
30C0
1980
3300
1E00
0C00
1E00
6600
6600
C300
ENDCHAR
STARTCHAR afii10074
ENCODING 201
SWIDTH 1111 0
DWIDTH 10 0
BBX 10 9 0 0
BITMAP
30C0
30C0
6380
6780
6D80
7980
E300
C300
C300
ENDCHAR
STARTCHAR afii10075
ENCODING 202
SWIDTH 909 0
DWIDTH 10 0
BBX 10 11 0 0
BITMAP
1980
0F00
30C0
30C0
6380
6780
6D80
7980
E300
C300
C300
ENDCHAR
STARTCHAR afii10076
ENCODING 203
SWIDTH 1000 0
DWIDTH 9 0
BBX 10 9 0 0
BITMAP
3180
3300
6C00
7800
7800
6C00
CC00
C600
C300
ENDCHAR
STARTCHAR afii10077
ENCODING 204
SWIDTH 1111 0
DWIDTH 10 0
BBX 10 9 0 0
BITMAP
0FC0
0CC0
1980
1980
1980
1980
3300
3300
E300
ENDCHAR
STARTCHAR afii10078
ENCODING 205
SWIDTH 1333 0
DWIDTH 12 0
BBX 12 9 0 0
BITMAP
3030
3870
79E0
6F60
6660
6060
C0C0
C0C0
C0C0
ENDCHAR
STARTCHAR afii10079
ENCODING 206
SWIDTH 1111 0
DWIDTH 10 0
BBX 10 9 0 0
BITMAP
30C0
30C0
6180
6180
7F80
6180
C300
C300
C300
ENDCHAR
STARTCHAR afii10080
ENCODING 207
SWIDTH 1111 0
DWIDTH 10 0
BBX 10 9 0 0
BITMAP
0F00
1980
6180
6180
6180
6180
C300
6600
3C00
ENDCHAR
STARTCHAR afii10081
ENCODING 208
SWIDTH 1111 0
DWIDTH 10 0
BBX 10 9 0 0
BITMAP
3FC0
30C0
6180
6180
6180
6180
C300
C300
C300
ENDCHAR
STARTCHAR afii10097
ENCODING 209
SWIDTH 1111 0
DWIDTH 10 0
BBX 10 9 0 0
BITMAP
1FC0
30C0
6180
6180
3F80
0D80
3300
6300
C300
ENDCHAR
STARTCHAR afii10082
ENCODING 210
SWIDTH 769 0
DWIDTH 10 0
BBX 11 13 -1 -4
BITMAP
1F80
1CC0
30C0
30C0
30C0
30C0
6180
7300
7E00
6000
C000
C000
C000
ENDCHAR
STARTCHAR afii10083
ENCODING 211
SWIDTH 1000 0
DWIDTH 9 0
BBX 10 9 0 0
BITMAP
0F00
1980
6180
6000
6000
6000
C300
6600
3C00
ENDCHAR
STARTCHAR afii10084
ENCODING 212
SWIDTH 1111 0
DWIDTH 10 0
BBX 10 9 0 0
BITMAP
3FC0
0600
0C00
0C00
0C00
0C00
1800
1800
1800
ENDCHAR
STARTCHAR afii10085
ENCODING 213
SWIDTH 692 0
DWIDTH 9 0
BBX 11 13 -1 -4
BITMAP
1860
1860
1980
1980
0F00
0F00
0C00
0C00
1800
1800
6000
6000
C000
ENDCHAR
STARTCHAR afii10072
ENCODING 214
SWIDTH 1556 0
DWIDTH 14 0
BBX 16 9 -1 0
BITMAP
18C6
0CCC
0DB0
07E0
07E0
0DB0
3330
6318
C30C
ENDCHAR
STARTCHAR afii10067
ENCODING 215
SWIDTH 1111 0
DWIDTH 10 0
BBX 10 9 0 0
BITMAP
3F80
30C0
6180
6180
7F00
6180
C300
C300
FE00
ENDCHAR
STARTCHAR afii10094
ENCODING 216
SWIDTH 1111 0
DWIDTH 10 0
BBX 10 9 0 0
BITMAP
3000
3000
6000
7F00
6180
6180
C300
C300
FE00
ENDCHAR
STARTCHAR afii10093
ENCODING 217
SWIDTH 1333 0
DWIDTH 12 0
BBX 12 9 0 0
BITMAP
3030
3030
6060
7F60
61E0
61E0
C3C0
C3C0
FEC0
ENDCHAR
STARTCHAR afii10073
ENCODING 218
SWIDTH 1111 0
DWIDTH 10 0
BBX 10 9 0 0
BITMAP
1F80
30C0
0180
0180
1F00
0180
C300
C300
7E00
ENDCHAR
STARTCHAR afii10090
ENCODING 219
SWIDTH 1333 0
DWIDTH 12 0
BBX 12 9 0 0
BITMAP
3330
3330
6660
6660
6660
6660
CCC0
CCC0
FFC0
ENDCHAR
STARTCHAR afii10095
ENCODING 220
SWIDTH 1111 0
DWIDTH 10 0
BBX 10 9 0 0
BITMAP
1F00
3180
0180
0180
1F80
0180
0300
C600
7C00
ENDCHAR
STARTCHAR afii10091
ENCODING 221
SWIDTH 1091 0
DWIDTH 12 0
BBX 13 11 0 -2
BITMAP
3330
3330
3330
3330
6660
6660
6660
6660
FFE0
0060
0060
ENDCHAR
STARTCHAR afii10089
ENCODING 222
SWIDTH 1111 0
DWIDTH 10 0
BBX 10 9 0 0
BITMAP
30C0
30C0
6180
6180
3F80
0180
0300
0300
0300
ENDCHAR
STARTCHAR afii10092
ENCODING 223
SWIDTH 1222 0
DWIDTH 11 0
BBX 12 9 0 0
BITMAP
3C00
0C00
1800
1FC0
1860
1860
30C0
30C0
3F80
ENDCHAR
STARTCHAR afii10048
ENCODING 224
SWIDTH 1167 0
DWIDTH 14 0
BBX 15 12 0 0
BITMAP
18F0
3738
3618
3C0C
3C0C
7818
7818
7818
7818
D860
DCE0
C780
ENDCHAR
STARTCHAR afii10017
ENCODING 225
SWIDTH 1000 0
DWIDTH 12 0
BBX 15 12 -1 0
BITMAP
00C0
0180
03C0
03C0
0660
0CC0
1860
1860
3FF0
6060
C030
C030
ENDCHAR
STARTCHAR afii10018
ENCODING 226
SWIDTH 1000 0
DWIDTH 12 0
BBX 12 12 1 0
BITMAP
1FE0
3000
3000
3000
3000
7F00
6180
60C0
60C0
C180
C300
FE00
ENDCHAR
STARTCHAR afii10040
ENCODING 227
SWIDTH 929 0
DWIDTH 13 0
BBX 13 14 1 -2
BITMAP
1830
1830
1830
3060
3060
3060
3060
60C0
60C0
60C0
60C0
FFC0
00C0
00C0
ENDCHAR
STARTCHAR afii10021
ENCODING 228
SWIDTH 929 0
DWIDTH 13 0
BBX 14 14 0 -2
BITMAP
03F8
0318
0318
0630
0630
0630
0630
0C60
0C60
0C60
1860
FFE0
C060
C060
ENDCHAR
STARTCHAR afii10022
ENCODING 229
SWIDTH 1000 0
DWIDTH 12 0
BBX 12 12 1 0
BITMAP
1FF0
3000
3000
3000
3000
7F80
6000
6000
6000
C000
C000
FF80
ENDCHAR
STARTCHAR afii10038
ENCODING 230
SWIDTH 1000 0
DWIDTH 13 0
BBX 15 13 0 0
BITMAP
00C0
03F0
1DB8
1998
318C
318C
6318
6318
6318
3330
76E0
1F80
0600
ENDCHAR
STARTCHAR afii10020
ENCODING 231
SWIDTH 917 0
DWIDTH 11 0
BBX 12 12 1 0
BITMAP
1FF0
3000
3000
3000
3000
6000
6000
6000
6000
C000
C000
C000
ENDCHAR
STARTCHAR afii10039
ENCODING 232
SWIDTH 1000 0
DWIDTH 12 0
BBX 15 12 -1 0
BITMAP
1806
1818
0C30
0660
03C0
0300
0300
0780
0CC0
30C0
6060
C030
ENDCHAR
STARTCHAR afii10026
ENCODING 233
SWIDTH 1000 0
DWIDTH 12 0
BBX 11 12 1 0
BITMAP
1860
31C0
31C0
33C0
33C0
6D80
6D80
7980
7980
E300
E300
C300
ENDCHAR
STARTCHAR afii10027
ENCODING 234
SWIDTH 857 0
DWIDTH 12 0
BBX 11 14 1 0
BITMAP
0CC0
0780
1860
31C0
31C0
33C0
33C0
6D80
6D80
7980
7980
E300
E300
C300
ENDCHAR
STARTCHAR afii10028
ENCODING 235
SWIDTH 917 0
DWIDTH 11 0
BBX 12 12 1 0
BITMAP
1860
3180
3300
3600
3C00
7000
7800
6C00
6600
C600
C300
C180
ENDCHAR
STARTCHAR afii10029
ENCODING 236
SWIDTH 917 0
DWIDTH 11 0
BBX 12 12 0 0
BITMAP
07F0
0C60
0C60
0C60
0C60
18C0
18C0
18C0
18C0
3180
3180
E180
ENDCHAR
STARTCHAR afii10030
ENCODING 237
SWIDTH 1167 0
DWIDTH 14 0
BBX 13 12 1 0
BITMAP
1818
3030
3870
3870
3CF0
79E0
6F60
6F60
6660
CCC0
C0C0
C0C0
ENDCHAR
STARTCHAR afii10031
ENCODING 238
SWIDTH 1083 0
DWIDTH 13 0
BBX 12 12 1 0
BITMAP
1830
3060
3060
3060
3060
7FC0
60C0
60C0
60C0
C180
C180
C180
ENDCHAR
STARTCHAR afii10032
ENCODING 239
SWIDTH 1083 0
DWIDTH 13 0
BBX 14 12 0 0
BITMAP
03E0
1C70
1830
3018
3018
6030
6030
6030
6030
60C0
71C0
1F00
ENDCHAR
STARTCHAR afii10033
ENCODING 240
SWIDTH 1083 0
DWIDTH 13 0
BBX 12 12 1 0
BITMAP
1FF0
3060
3060
3060
3060
60C0
60C0
60C0
60C0
C180
C180
C180
ENDCHAR
STARTCHAR afii10049
ENCODING 241
SWIDTH 1000 0
DWIDTH 12 0
BBX 12 12 0 0
BITMAP
07F0
1860
3060
3060
3060
30C0
1FC0
06C0
0CC0
3180
6180
C180
ENDCHAR
STARTCHAR afii10034
ENCODING 242
SWIDTH 917 0
DWIDTH 11 0
BBX 12 12 1 0
BITMAP
1FC0
30C0
3060
3060
3060
6180
7F00
6000
6000
C000
C000
C000
ENDCHAR
STARTCHAR afii10035
ENCODING 243
SWIDTH 1000 0
DWIDTH 12 0
BBX 14 12 0 0
BITMAP
03E0
1C70
1830
3018
3000
6000
6000
6000
6030
60C0
71C0
1F00
ENDCHAR
STARTCHAR afii10036
ENCODING 244
SWIDTH 833 0
DWIDTH 10 0
BBX 13 12 -1 0
BITMAP
1FF8
0300
0300
0300
0300
0600
0600
0600
0600
0C00
0C00
0C00
ENDCHAR
STARTCHAR afii10037
ENCODING 245
SWIDTH 1000 0
DWIDTH 12 0
BBX 13 12 0 0
BITMAP
1818
3030
1860
1860
0CC0
1980
0F00
0F00
0600
0C00
0C00
7800
ENDCHAR
STARTCHAR afii10024
ENCODING 246
SWIDTH 1333 0
DWIDTH 16 0
BBX 19 12 -1 0
BITMAP
183060
186180
0C6300
066600
036C00
03F000
03F000
06D800
0CCC00
318C00
618600
C18300
ENDCHAR
STARTCHAR afii10019
ENCODING 247
SWIDTH 1000 0
DWIDTH 12 0
BBX 12 12 1 0
BITMAP
1FC0
30C0
3060
3060
30C0
7F00
6180
60C0
60C0
C180
C300
FE00
ENDCHAR
STARTCHAR afii10046
ENCODING 248
SWIDTH 1000 0
DWIDTH 12 0
BBX 13 12 1 0
BITMAP
1800
3000
3000
3000
3000
7F80
60C0
6060
6060
C0C0
C180
FF00
ENDCHAR
STARTCHAR afii10045
ENCODING 249
SWIDTH 1250 0
DWIDTH 15 0
BBX 15 12 1 0
BITMAP
1806
300C
300C
300C
300C
7F98
60D8
6078
6078
C0F0
C1B0
FF30
ENDCHAR
STARTCHAR afii10025
ENCODING 250
SWIDTH 1000 0
DWIDTH 12 0
BBX 12 12 1 0
BITMAP
0FE0
3060
0060
0060
0060
1F80
00C0
00C0
00C0
0180
C180
7F00
ENDCHAR
STARTCHAR afii10042
ENCODING 251
SWIDTH 1333 0
DWIDTH 16 0
BBX 17 12 0 0
BITMAP
186180
30C300
30C300
30C300
30C300
618600
618600
618600
618600
C30C00
C30C00
FFFC00
ENDCHAR
STARTCHAR afii10047
ENCODING 252
SWIDTH 1083 0
DWIDTH 13 0
BBX 14 12 0 0
BITMAP
07F0
1830
3018
0018
0018
0FF0
0030
0030
0030
C060
60C0
3F80
ENDCHAR
STARTCHAR afii10043
ENCODING 253
SWIDTH 1214 0
DWIDTH 17 0
BBX 18 14 0 -2
BITMAP
186180
186180
186180
30C300
30C300
30C300
30C300
618600
618600
618600
618600
FFFE00
000600
000600
ENDCHAR
STARTCHAR afii10041
ENCODING 254
SWIDTH 1083 0
DWIDTH 13 0
BBX 12 12 1 0
BITMAP
1830
3060
3060
3060
3060
3FC0
00C0
00C0
00C0
0180
0180
0180
ENDCHAR
STARTCHAR afii10044
ENCODING 255
SWIDTH 1083 0
DWIDTH 13 0
BBX 15 12 0 0
BITMAP
1E00
0C00
0C00
0C00
0C00
1FE0
1830
1818
1818
3030
3060
3FC0
ENDCHAR
ENDFONT
